<svg width="34" height="43" viewBox="0 0 34 43" fill="none" xmlns="http://www.w3.org/2000/svg">
<rect width="33" height="42" transform="matrix(1 0 0 -1 0.135864 42.0151)" fill="white"/>
<path d="M33.1359 39.7651V41.2651C33.1359 41.4683 33.0616 41.644 32.9132 41.7925C32.7648 41.9409 32.589 42.0151 32.3859 42.0151H0.885864C0.682739 42.0151 0.506958 41.9409 0.358521 41.7925C0.210083 41.644 0.135864 41.4683 0.135864 41.2651V39.7651C0.135864 39.562 0.210083 39.3862 0.358521 39.2378C0.506958 39.0894 0.682739 39.0151 0.885864 39.0151H32.3859C32.589 39.0151 32.7648 39.0894 32.9132 39.2378C33.0616 39.3862 33.1359 39.562 33.1359 39.7651ZM27.1359 15.0151C27.1359 16.2339 26.9445 17.3589 26.5616 18.3901C26.1788 19.4214 25.6788 20.3003 25.0616 21.0269C24.4445 21.7534 23.7609 22.4409 23.0109 23.0894C22.2609 23.7378 21.5109 24.3433 20.7609 24.9058C20.0109 25.4683 19.3273 26.0308 18.7101 26.5933C18.0929 27.1558 17.5929 27.7925 17.2101 28.5034C16.8273 29.2144 16.6359 29.9683 16.6359 30.7651C16.6359 32.2651 17.1593 34.0151 18.2062 36.0151L18.1124 35.9917L18.1359 36.0151C16.7296 35.3745 15.4796 34.7261 14.3859 34.0698C13.2921 33.4136 12.2101 32.6323 11.1398 31.7261C10.0695 30.8198 9.18274 29.8628 8.47961 28.855C7.77649 27.8472 7.21008 26.6714 6.7804 25.3276C6.35071 23.9839 6.13586 22.5464 6.13586 21.0151C6.13586 19.7964 6.32727 18.6714 6.71008 17.6401C7.0929 16.6089 7.5929 15.73 8.21008 15.0034C8.82727 14.2769 9.51086 13.5894 10.2609 12.9409C11.0109 12.2925 11.7609 11.687 12.5109 11.1245C13.2609 10.562 13.9445 9.99951 14.5616 9.43701C15.1788 8.87451 15.6788 8.23779 16.0616 7.52686C16.4445 6.81592 16.6359 6.06201 16.6359 5.26514C16.6359 3.79639 16.1202 2.04639 15.089 0.0151367L15.1593 0.0385742L15.1359 0.0151367C16.5421 0.655762 17.7921 1.3042 18.8859 1.96045C19.9796 2.6167 21.0616 3.39795 22.132 4.3042C23.2023 5.21045 24.089 6.16748 24.7921 7.17529C25.4952 8.18311 26.0616 9.35889 26.4913 10.7026C26.921 12.0464 27.1359 13.4839 27.1359 15.0151Z" fill="#FF5722"/>
</svg>
