<svg width="42" height="42" viewBox="0 0 42 42" fill="none" xmlns="http://www.w3.org/2000/svg">
<path d="M29.5547 17.5547C29.5547 17.5547 29.6289 17.4805 29.7773 17.332C29.9258 17.1836 30 16.9062 30 16.5C30 16.0938 29.8516 15.7422 29.5547 15.4453C29.2578 15.1484 28.9062 15 28.5 15C25.8125 15 23.3281 15.3867 21.0469 16.1602C18.7656 16.9336 16.7383 17.9805 14.9648 19.3008C13.1914 20.6211 11.3516 22.3359 9.44531 24.4453C9.14844 24.7734 9 25.125 9 25.5C9 25.9062 9.14844 26.2578 9.44531 26.5547C9.74219 26.8516 10.0938 27 10.5 27C10.875 27 11.2266 26.8516 11.5547 26.5547C11.9766 26.1797 12.5547 25.625 13.2891 24.8906C14.0234 24.1562 14.5469 23.6406 14.8594 23.3438C17 21.4062 19.0977 20.0312 21.1523 19.2188C23.207 18.4062 25.6562 18 28.5 18C28.9062 18 29.2578 17.8516 29.5547 17.5547ZM42 11.8594C42 13.3438 41.8438 14.8516 41.5312 16.3828C40.8125 19.8828 39.3711 22.875 37.207 25.3594C35.043 27.8438 32.25 29.9375 28.8281 31.6406C25.4844 33.3281 22.0625 34.1719 18.5625 34.1719C16.25 34.1719 14.0156 33.8047 11.8594 33.0703C11.625 32.9922 10.9375 32.6641 9.79688 32.0859C8.65625 31.5078 7.90625 31.2188 7.54688 31.2188C7.29688 31.2188 6.98828 31.4688 6.62109 31.9688C6.25391 32.4688 5.90234 33.0156 5.56641 33.6094C5.23047 34.2031 4.82031 34.75 4.33594 35.25C3.85156 35.75 3.38281 36 2.92969 36C2.25781 36 1.76172 35.8633 1.44141 35.5898C1.12109 35.3164 0.765625 34.8516 0.375 34.1953C0.34375 34.1328 0.296875 34.0469 0.234375 33.9375C0.171875 33.8281 0.128906 33.75 0.105469 33.7031C0.0820312 33.6562 0.0585938 33.582 0.0351562 33.4805C0.0117188 33.3789 0 33.2734 0 33.1641C0 32.6172 0.242188 32.043 0.726562 31.4414C1.21094 30.8398 1.74219 30.3281 2.32031 29.9062C2.89844 29.4844 3.42969 29.0469 3.91406 28.5938C4.39844 28.1406 4.64062 27.7656 4.64062 27.4688C4.64062 27.4062 4.53125 27.1094 4.3125 26.5781C4.09375 26.0469 3.96875 25.7031 3.9375 25.5469C3.79688 24.75 3.72656 23.9375 3.72656 23.1094C3.72656 21.3125 4.06641 19.5938 4.74609 17.9531C5.42578 16.3125 6.35547 14.8711 7.53516 13.6289C8.71484 12.3867 10.0469 11.3008 11.5312 10.3711C13.0156 9.44141 14.6094 8.69531 16.3125 8.13281C17.1719 7.85156 18.3047 7.65234 19.7109 7.53516C21.1172 7.41797 22.5195 7.34766 23.918 7.32422C25.3164 7.30078 26.7109 7.25391 28.1016 7.18359C29.4922 7.11328 30.7695 6.92578 31.9336 6.62109C33.0977 6.31641 33.9844 5.875 34.5938 5.29688C34.75 5.14062 34.9805 4.91016 35.2852 4.60547C35.5898 4.30078 35.8203 4.08203 35.9766 3.94922C36.1328 3.81641 36.3438 3.66016 36.6094 3.48047C36.875 3.30078 37.1602 3.17578 37.4648 3.10547C37.7695 3.03516 38.1094 3 38.4844 3C39.0938 3 39.6445 3.35938 40.1367 4.07812C40.6289 4.79688 41 5.67188 41.25 6.70312C41.5 7.73438 41.6875 8.70312 41.8125 9.60938C41.9375 10.5156 42 11.2656 42 11.8594Z" fill="#FF5722"/>
</svg>
